<?xml version="1.0" encoding="UTF-8"?>
<svg xmlns="http://www.w3.org/2000/svg" viewBox="0 0 171.7 18.6">
    <path d="M4.3.2H0v17.9h11.4v-3.9H4.3V.2zM26.8 0c-5-.2-9.1 3.7-9.3 8.7v.5c-.1 5 3.8 9.1 8.8 9.2h.5c5 .2 9.1-3.7 9.3-8.7v-.5c.1-5-3.8-9.1-8.8-9.2h-.5zm0 14.4c-2.8 0-5-2.3-5-5.1v-.1c0-2.8 2.2-5 5-5s5 2.2 5 5c.1 2.8-2.1 5.1-4.9 5.2h-.1zm23-3.6L45.6.2h-4.5l7.2 17.9h3L58.5.2H54l-4.2 10.6z" fill="#fdda00"/>
    <path d="M93.1 10.8L88.9.2h-4.5l7.2 17.9h3L101.8.2h-4.5l-4.2 10.6zm65.5-5.1L155.2.3h-4.9l6.2 9.9v8h4.3v-8L167 .3h-5l-3.4 5.4zm13.1 10.8c0 1.1-.9 2-2 1.9-1.1 0-2-.9-1.9-2 0-1.1.9-1.9 2-1.9 1-.1 1.9.8 1.9 2zm-.4 0c0-.9-.8-1.7-1.7-1.6-.9 0-1.7.8-1.6 1.7 0 .9.8 1.6 1.7 1.6.9 0 1.6-.7 1.6-1.7 0 .1 0 0 0 0zm-1.3.2l.5.7h-.5l-.4-.6h-.2v.6h-.4v-1.9h.8c.3 0 .7.2.7.6 0 .3-.2.5-.5.6zm-.3-.3c.1 0 .3-.1.3-.2s-.1-.3-.2-.3h-.4v.5h.3zm-29.1-5.6c.7-.2 1.3-.6 1.8-1.2 1-1.1 1.5-2.4 1.5-3.9 0-1.4-.5-2.8-1.5-3.8-1.3-1.2-3-1.8-4.8-1.7h-6.9v17.9h4.3v-6.8h.6l5.8 6.8h5.4l-6.2-7.3zm-1.5-4c-.2.2-.6.5-1.7.5H135V4.2h2.4c1 0 1.4.3 1.7.5.3.3.4.7.4 1.1 0 .4-.1.7-.4 1zm-61.5 7.4h-7.1v-3.3h5.2v-4h-5.2V4.2h6.8v-4H66.2v17.9h11.4v-3.9zm43.4 0h-7.1v-3.3h5.2v-4h-5.2V4.2h6.9v-4h-11.2v17.9H121v-3.9z" fill="#514f4e"/>
</svg>